<svg width="38" height="37" viewBox="0 0 38 37" fill="none" xmlns="http://www.w3.org/2000/svg">
<path d="M19.1792 0.878906C9.08231 0.878906 0.904663 9.05655 0.904663 19.1534C0.904663 27.7417 6.79761 34.8695 14.7482 36.8789C14.6564 36.6503 14.6113 36.3299 14.6113 36.0111V32.9036H12.3266C11.0933 32.9036 9.95016 32.3562 9.4478 31.3499C8.85368 30.2534 8.76192 28.5628 7.25486 27.5115C6.79761 27.146 7.1631 26.7805 7.66545 26.8256C8.62506 27.0993 9.40114 27.7401 10.1321 28.6981C10.8631 29.6578 11.1835 29.8864 12.5537 29.8864C13.1929 29.8864 14.1976 29.8413 15.1121 29.7029C15.6145 28.4229 16.4823 27.2813 17.5337 26.7338C11.4121 26.0029 8.48819 22.9872 8.48819 18.875C8.48819 17.0927 9.26428 15.4021 10.5443 13.9401C10.1337 12.5233 9.58467 9.59935 10.7278 8.45777C13.4697 8.45777 15.1137 10.2401 15.5243 10.6958C16.8945 10.2386 18.4031 9.96484 19.9553 9.96484C21.5541 9.96484 23.016 10.2386 24.3862 10.6958C24.7968 10.2386 26.4423 8.45777 29.1827 8.45777C30.2792 9.55424 29.7768 12.5233 29.3196 13.9401C30.5996 15.357 31.3306 17.0927 31.3306 18.875C31.3306 22.9872 28.4517 26.0029 22.3768 26.6421C24.0674 27.5099 25.2556 29.9766 25.2556 31.804V35.966C25.2556 36.1028 25.2105 36.2397 25.2105 36.3766C32.3368 33.9099 37.4537 27.1491 37.4537 19.1534C37.4537 9.05655 29.276 0.878906 19.1792 0.878906Z" fill="white"/>
</svg>
