<svg width="50" height="29" viewBox="0 0 50 29" fill="none" xmlns="http://www.w3.org/2000/svg">
<path d="M14.3829 0.854431C22.0757 0.854431 28.3115 7.13375 28.3115 14.8791C28.3115 22.6245 22.0752 28.9034 14.3829 28.9034C6.69046 28.9034 0.453735 22.6245 0.453735 14.8791C0.453735 7.13375 6.68999 0.854431 14.3829 0.854431ZM36.6267 1.67596C40.4731 1.67596 43.5912 7.58663 43.5912 14.8791H43.5917C43.5917 22.1698 40.4736 28.0823 36.6271 28.0823C32.7807 28.0823 29.6626 22.1698 29.6626 14.8791C29.6626 7.58853 32.7802 1.67596 36.6267 1.67596ZM47.3922 3.05118C48.7447 3.05118 49.8417 8.34664 49.8417 14.8791C49.8417 21.4097 48.7452 26.7071 47.3922 26.7071C46.0393 26.7071 44.9432 21.4112 44.9432 14.8791C44.9432 8.34712 46.0397 3.05118 47.3922 3.05118Z" fill="white"/>
</svg>
