<svg width="34" height="28" viewBox="0 0 34 28" fill="none" xmlns="http://www.w3.org/2000/svg">
<path d="M30.4499 6.99477C30.4704 7.29227 30.4704 7.58977 30.4704 7.89002C30.4704 17.0385 23.5059 27.5895 10.771 27.5895V27.584C7.00905 27.5895 3.32526 26.5119 0.158325 24.4801C0.705341 24.5459 1.2551 24.5788 1.80623 24.5802C4.92381 24.5829 7.95228 23.5369 10.4049 21.6107C7.44228 21.5545 4.84429 19.6228 3.93671 16.8027C4.97453 17.0028 6.04389 16.9617 7.06252 16.6834C3.83252 16.0308 1.50873 13.1929 1.50873 9.89711C1.50873 9.86695 1.50873 9.83816 1.50873 9.80937C2.47115 10.3454 3.54873 10.6429 4.65099 10.6758C1.60881 8.64268 0.671067 4.59558 2.50816 1.43139C6.02332 5.75679 11.2097 8.38631 16.7772 8.66461C16.2192 6.25994 16.9815 3.7401 18.7802 2.04969C21.5687 -0.571597 25.9545 -0.437242 28.5757 2.34994C30.1263 2.04421 31.6124 1.47526 32.9724 0.669129C32.4556 2.27179 31.3739 3.63316 29.9289 4.49824C31.3012 4.33647 32.642 3.96905 33.9047 3.40832C32.9752 4.80123 31.8044 6.01453 30.4499 6.99477Z" fill="white"/>
</svg>
